<svg width="415" xmlns="http://www.w3.org/2000/svg" height="477" fill="none"><g class="frame-container-wrapper"><g class="frame-container-blur"><g class="frame-container-shadows"><g class="fills"><rect rx="0" ry="0" width="415" height="477" transform="matrix(1.000000, 0.000000, 0.000000, 1.000000, 0.000000, 0.000000)" class="frame-background"/></g><g style="fill: rgb(0, 0, 0);" class="frame-children"><defs><radialGradient cx="0" cy="0" r="1" id="a" gradientTransform="matrix(12.968750, 0.000000, 0.000000, 14.062500, -0.000000, 0.000000) rotate(132.839 10.786 10.065)scale(37.5033)" gradientUnits="userSpaceOnUse"><stop stop-color="#FFF478"/><stop offset=".475" stop-color="#FFB02E"/><stop offset="1" stop-color="#F70A8D"/></radialGradient></defs><path d="M207.487,421.847C328.537,421.847,389.037,333.703,389.037,224.972C389.037,116.269,328.537,28.125,207.474,28.125C86.437,28.125,25.938,116.269,25.938,224.986C25.938,333.703,86.424,421.847,207.487,421.847Z" fill="url(#a)" style="fill: url(&quot;#a&quot;);" class="fills"/><defs><radialGradient cx="0" cy="0" r="1" id="b" gradientTransform="matrix(12.968750, 0.000000, 0.000000, 14.062500, -0.000000, 0.000000) rotate(131.878 10.74 10.193)scale(38.9487)" gradientUnits="userSpaceOnUse"><stop stop-color="#FFF478"/><stop offset=".475" stop-color="#FFB02E"/><stop offset="1" stop-color="#F70A8D"/></radialGradient></defs><path d="M207.487,421.847C328.537,421.847,389.037,333.703,389.037,224.972C389.037,116.269,328.537,28.125,207.474,28.125C86.437,28.125,25.938,116.269,25.938,224.986C25.938,333.703,86.424,421.847,207.487,421.847Z" fill="url(#b)" style="fill: url(&quot;#b&quot;);" class="fills"/><defs><radialGradient cx="0" cy="0" r="1" id="c" gradientTransform="matrix(12.968750, 0.000000, 0.000000, 14.062500, -0.000000, 0.000000) rotate(101.31 2.876 12.808)scale(17.8466 22.8581)" gradientUnits="userSpaceOnUse"><stop offset=".788" stop-color="#F59639" stop-opacity="0"/><stop offset=".973" stop-color="#FF7DCE"/></radialGradient></defs><path d="M207.487,421.847C328.537,421.847,389.037,333.703,389.037,224.972C389.037,116.269,328.537,28.125,207.474,28.125C86.437,28.125,25.938,116.269,25.938,224.986C25.938,333.703,86.424,421.847,207.487,421.847Z" fill="url(#c)" style="fill: url(&quot;#c&quot;);" class="fills"/><defs><radialGradient cx="0" cy="0" r="1" id="d" gradientTransform="matrix(12.968750, 0.000000, 0.000000, 14.062500, -0.000000, 0.000000) matrix(-29 29 -29 -29 18 14)" gradientUnits="userSpaceOnUse"><stop offset=".315" stop-opacity="0"/><stop offset="1"/></radialGradient></defs><path d="M207.487,421.847C328.537,421.847,389.037,333.703,389.037,224.972C389.037,116.269,328.537,28.125,207.474,28.125C86.437,28.125,25.938,116.269,25.938,224.986C25.938,333.703,86.424,421.847,207.487,421.847Z" fill="url(#d)" fill-opacity=".6" style="fill: url(&quot;#d&quot;); fill-opacity: 0.6;" class="fills"/><defs><radialGradient cx="0" cy="0" r="1" id="e" gradientTransform="matrix(12.968750, 0.000000, 0.000000, 14.062500, -0.000000, 0.000000) rotate(77.692 -2.555 18.434)scale(28.1469)" gradientUnits="userSpaceOnUse"><stop offset=".508" stop-color="#7D6133" stop-opacity="0"/><stop offset="1" stop-color="#715B32"/></radialGradient></defs><path d="M207.487,421.847C328.537,421.847,389.037,333.703,389.037,224.972C389.037,116.269,328.537,28.125,207.474,28.125C86.437,28.125,25.938,116.269,25.938,224.986C25.938,333.703,86.424,421.847,207.487,421.847Z" fill="url(#e)" style="fill: url(&quot;#e&quot;);" class="fills"/><defs><radialGradient cx="0" cy="0" r="1" id="f" gradientTransform="matrix(12.968750, 0.000000, 0.000000, 14.062500, -0.000000, 0.000000) matrix(7.5 10.99996 -7.97335 5.4364 16.5 16.5)" gradientUnits="userSpaceOnUse"><stop stop-color="#FFB849"/><stop offset="1" stop-color="#FFB847" stop-opacity="0"/></radialGradient></defs><path d="M207.487,421.847C328.537,421.847,389.037,333.703,389.037,224.972C389.037,116.269,328.537,28.125,207.474,28.125C86.437,28.125,25.938,116.269,25.938,224.986C25.938,333.703,86.424,421.847,207.487,421.847Z" fill="url(#f)" style="fill: url(&quot;#f&quot;);" class="fills"/><defs><radialGradient cx="0" cy="0" r="1" id="g" gradientTransform="matrix(12.968750, 0.000000, 0.000000, 14.062500, -0.000000, 0.000000) matrix(11.49998 2 -2 11.49998 20.5 18)" gradientUnits="userSpaceOnUse"><stop stop-color="#FFA64B"/><stop offset=".9" stop-color="#FFAE46" stop-opacity="0"/></radialGradient></defs><path d="M207.487,421.847C328.537,421.847,389.037,333.703,389.037,224.972C389.037,116.269,328.537,28.125,207.474,28.125C86.437,28.125,25.938,116.269,25.938,224.986C25.938,333.703,86.424,421.847,207.487,421.847Z" fill="url(#g)" style="fill: url(&quot;#g&quot;);" class="fills"/><defs><radialGradient cx="0" cy="0" r="1" id="h" gradientTransform="matrix(12.968750, 0.000000, 0.000000, 14.062500, -0.000000, 0.000000) rotate(43.971 -9.827 29.173)scale(59.0529)" gradientUnits="userSpaceOnUse"><stop offset=".185" stop-opacity="0"/><stop offset="1" stop-opacity=".4"/></radialGradient></defs><path d="M207.487,421.847C328.537,421.847,389.037,333.703,389.037,224.972C389.037,116.269,328.537,28.125,207.474,28.125C86.437,28.125,25.938,116.269,25.938,224.986C25.938,333.703,86.424,421.847,207.487,421.847Z" fill="url(#h)" style="fill: url(&quot;#h&quot;);" class="fills"/><defs><radialGradient cx="0" cy="0" r="1" id="i" gradientTransform="matrix(12.968750, 0.000000, 0.000000, 14.062500, 0.000000, 0.000000) matrix(0 -11 22 0 16 27)" gradientUnits="userSpaceOnUse"><stop stop-color="#F70A8D"/><stop offset="1" stop-color="#89029C"/></radialGradient></defs><path d="M207.500,351.562C90.781,351.562,90.781,225.000,90.781,225.000L324.219,225.000C324.219,225.000,324.219,351.562,207.500,351.562Z" fill="url(#i)" style="fill: url(&quot;#i&quot;);" class="fills"/><defs><linearGradient x1="16" y1="16" x2="16" y2="17.5" id="j" gradientUnits="userSpaceOnUse" gradientTransform="matrix(12.968750, 0.000000, 0.000000, 14.062500, 0.000000, 0.000000)"><stop stop-color="#ECCDFF"/><stop offset="1" stop-color="#fff"/></linearGradient></defs><path d="M103.750,232.031L103.750,225.000L311.250,225.000L311.250,232.031C311.250,239.798,305.444,246.094,298.281,246.094L116.719,246.094C109.556,246.094,103.750,239.798,103.750,232.031Z" fill="url(#j)" style="fill: url(&quot;#j&quot;);" class="fills"/><defs><radialGradient cx="0" cy="0" r="1" id="k" gradientTransform="matrix(12.968750, 0.000000, 0.000000, 14.062500, -0.000000, -0.000000) matrix(-11.99998 -5.5001 2.2862 -4.98797 14 14)" gradientUnits="userSpaceOnUse"><stop stop-color="#CC7521"/><stop offset="1" stop-color="#E6872B" stop-opacity="0"/></radialGradient></defs><path d="M136.172,217.969C136.172,217.969,97.266,210.937,70.680,177.666C43.575,143.747,68.877,95.161,116.719,119.531C137.170,83.363,187.917,96.750,181.173,140.625C174.689,182.812,136.172,217.969,136.172,217.969Z" fill="url(#k)" style="fill: url(&quot;#k&quot;);" class="fills"/><defs><radialGradient cx="0" cy="0" r="1" id="l" gradientTransform="matrix(12.968750, 0.000000, 0.000000, 14.062500, -0.000000, -0.000000) rotate(122.005 6.952 11.043)scale(4.71699)" gradientUnits="userSpaceOnUse"><stop stop-color="#EC812A"/><stop offset="1" stop-color="#FBA84C" stop-opacity="0"/></radialGradient></defs><path d="M253.111,217.969C253.111,217.969,292.017,210.937,318.603,177.666C345.708,143.747,320.419,95.161,272.564,119.531C252.112,83.363,201.366,96.750,208.110,140.625C214.594,182.812,253.111,217.969,253.111,217.969Z" fill="url(#l)" style="fill: url(&quot;#l&quot;);" class="fills"/><defs><linearGradient x1="12.986" y1="7" x2="9.986" y2="14" id="m" gradientUnits="userSpaceOnUse" gradientTransform="matrix(12.968750, 0.000000, 0.000000, 14.062500, -0.000000, -0.000000)"><stop stop-color="#CA0B4A"/><stop offset="1" stop-color="#F70A8D"/></linearGradient></defs><path d="M137.378,200.672C123.813,196.031,100.962,185.513,83.467,163.603C56.362,129.684,81.664,81.098,129.506,105.469C149.958,69.300,200.704,82.688,193.961,126.563C189.435,155.953,169.385,181.927,157.622,194.991C152.417,200.899,144.573,203.100,137.378,200.672Z" fill="url(#m)" style="fill: url(&quot;#m&quot;);" class="fills"/><defs><linearGradient x1="24" y1="7" x2="19" y2="15" id="n" gradientUnits="userSpaceOnUse" gradientTransform="matrix(12.968750, 0.000000, 0.000000, 14.062500, -0.000000, -0.000000)"><stop stop-color="#CA0B4A"/><stop offset="1" stop-color="#F70A8D"/></linearGradient></defs><path d="M277.661,200.672C291.226,196.031,314.077,185.513,331.572,163.603C358.677,129.684,333.388,81.098,285.533,105.469C265.081,69.300,214.335,82.688,221.078,126.563C225.604,155.953,245.654,181.927,257.417,194.991C262.734,200.883,270.424,203.147,277.661,200.672Z" fill="url(#n)" style="fill: url(&quot;#n&quot;);" class="fills"/><defs><radialGradient cx="0" cy="0" r="1" id="o" gradientTransform="matrix(13.526684, 0.000000, 0.000000, 13.526684, 211.173684, 221.411811) matrix(0 3.10148 -1.5764 0 9.432 9.31)" gradientUnits="userSpaceOnUse"><stop stop-color="#EC6686"/><stop offset="1" stop-color="#EC6686" stop-opacity="0"/></radialGradient></defs><ellipse cx="122.33" cy="130.932" rx="20.29" ry="40.58" transform="matrix(0.677941, -0.735117, 0.677941, 0.735117, -49.366381, 124.608789)" fill="url(#o)" style="fill: url(&quot;#o&quot;);" class="fills"/><defs><radialGradient cx="0" cy="0" r="1" id="p" gradientTransform="matrix(13.026008, 0.000000, 0.000000, 14.009479, 207.218677, 224.642503) matrix(.41355 2.66063 -1.8031 .28026 21.043 9.024)" gradientUnits="userSpaceOnUse"><stop stop-color="#EC6686"/><stop offset=".26" stop-color="#EC6686"/><stop offset="1" stop-color="#EC6686" stop-opacity="0"/></radialGradient></defs><ellipse cx="271.294" cy="129.35" rx="26.052" ry="42.028" transform="matrix(0.970220, -0.242226, 0.207705, 0.978192, -18.787424, 68.535387)" fill="url(#p)" style="fill: url(&quot;#p&quot;);" class="fills"/><defs><radialGradient cx="0" cy="0" r="1" id="q" gradientTransform="matrix(13.526684, 0.000000, 0.000000, 13.526684, 209.130284, 220.512009) rotate(90 2.727 10.351)scale(1.5)" gradientUnits="userSpaceOnUse"><stop stop-color="#EC6686"/><stop offset="1" stop-color="#EC6686" stop-opacity="0"/></radialGradient></defs><ellipse cx="169.605" cy="107.212" rx="20.29" ry="20.29" transform="matrix(0.677941, 0.735117, -0.677941, 0.735117, 127.306680, -96.280846)" fill="url(#q)" style="fill: url(&quot;#q&quot;);" class="fills"/><defs><radialGradient cx="0" cy="0" r="1" id="r" gradientTransform="matrix(13.526684, 0.000000, 0.000000, 13.526684, 202.829531, 221.047824) matrix(0 2 -1 0 24.371 8.624)" gradientUnits="userSpaceOnUse"><stop stop-color="#EC6686"/><stop offset="1" stop-color="#EC6686" stop-opacity="0"/></radialGradient></defs><ellipse cx="316.061" cy="121.275" rx="13.527" ry="27.053" transform="matrix(0.677941, 0.735117, -0.677941, 0.735117, 184.007757, -200.218215)" fill="url(#r)" style="fill: url(&quot;#r&quot;);" class="fills"/></g></g></g></g></svg>